<mxfile host="app.diagrams.net" modified="2024-03-27T11:43:51.951Z" agent="Mozilla/5.0 (Windows NT 10.0; Win64; x64) AppleWebKit/537.36 (KHTML, like Gecko) Chrome/123.0.0.0 Safari/537.36" etag="BuMAKEHkP5GONKI5BFy0" version="24.1.0" type="github">
  <diagram id="C5RBs43oDa-KdzZeNtuy" name="Page-1">
    <mxGraphModel dx="1191" dy="617" grid="1" gridSize="10" guides="1" tooltips="1" connect="1" arrows="1" fold="1" page="1" pageScale="1" pageWidth="827" pageHeight="1169" math="0" shadow="0">
      <root>
        <mxCell id="WIyWlLk6GJQsqaUBKTNV-0" />
        <mxCell id="WIyWlLk6GJQsqaUBKTNV-1" parent="WIyWlLk6GJQsqaUBKTNV-0" />
        <mxCell id="dbHFJKTM1H2bbqzhpIs9-2" style="edgeStyle=orthogonalEdgeStyle;rounded=0;orthogonalLoop=1;jettySize=auto;html=1;exitX=0.5;exitY=1;exitDx=0;exitDy=0;" edge="1" parent="WIyWlLk6GJQsqaUBKTNV-1" source="dbHFJKTM1H2bbqzhpIs9-0">
          <mxGeometry relative="1" as="geometry">
            <mxPoint x="400" y="120" as="targetPoint" />
          </mxGeometry>
        </mxCell>
        <mxCell id="dbHFJKTM1H2bbqzhpIs9-0" value="&lt;span id=&quot;selected_text&quot;&gt;&lt;/span&gt;(0) input(X,Y)" style="rounded=1;whiteSpace=wrap;html=1;" vertex="1" parent="WIyWlLk6GJQsqaUBKTNV-1">
          <mxGeometry x="340" y="20" width="120" height="30" as="geometry" />
        </mxCell>
        <mxCell id="dbHFJKTM1H2bbqzhpIs9-5" style="edgeStyle=orthogonalEdgeStyle;rounded=0;orthogonalLoop=1;jettySize=auto;html=1;exitX=1;exitY=0.5;exitDx=0;exitDy=0;" edge="1" parent="WIyWlLk6GJQsqaUBKTNV-1" source="dbHFJKTM1H2bbqzhpIs9-4" target="dbHFJKTM1H2bbqzhpIs9-6">
          <mxGeometry relative="1" as="geometry">
            <mxPoint x="440" y="380" as="targetPoint" />
            <Array as="points">
              <mxPoint x="590" y="145" />
              <mxPoint x="590" y="450" />
            </Array>
          </mxGeometry>
        </mxCell>
        <mxCell id="dbHFJKTM1H2bbqzhpIs9-8" style="edgeStyle=orthogonalEdgeStyle;rounded=0;orthogonalLoop=1;jettySize=auto;html=1;exitX=0.5;exitY=1;exitDx=0;exitDy=0;" edge="1" parent="WIyWlLk6GJQsqaUBKTNV-1" source="dbHFJKTM1H2bbqzhpIs9-4">
          <mxGeometry relative="1" as="geometry">
            <mxPoint x="400" y="240" as="targetPoint" />
          </mxGeometry>
        </mxCell>
        <mxCell id="dbHFJKTM1H2bbqzhpIs9-4" value="&lt;span id=&quot;selected_text&quot;&gt;&lt;/span&gt;(1) Y &amp;gt; 0" style="rhombus;whiteSpace=wrap;html=1;" vertex="1" parent="WIyWlLk6GJQsqaUBKTNV-1">
          <mxGeometry x="360" y="120" width="80" height="50" as="geometry" />
        </mxCell>
        <mxCell id="dbHFJKTM1H2bbqzhpIs9-27" style="edgeStyle=orthogonalEdgeStyle;rounded=0;orthogonalLoop=1;jettySize=auto;html=1;exitX=0.5;exitY=1;exitDx=0;exitDy=0;" edge="1" parent="WIyWlLk6GJQsqaUBKTNV-1" source="dbHFJKTM1H2bbqzhpIs9-6">
          <mxGeometry relative="1" as="geometry">
            <mxPoint x="400" y="530" as="targetPoint" />
          </mxGeometry>
        </mxCell>
        <mxCell id="dbHFJKTM1H2bbqzhpIs9-6" value="&lt;span id=&quot;selected_text&quot;&gt;&lt;/span&gt;(5) output(X,Y)" style="rounded=1;whiteSpace=wrap;html=1;" vertex="1" parent="WIyWlLk6GJQsqaUBKTNV-1">
          <mxGeometry x="340" y="420" width="120" height="60" as="geometry" />
        </mxCell>
        <mxCell id="dbHFJKTM1H2bbqzhpIs9-7" value="&lt;b&gt;&lt;span id=&quot;selected_text&quot;&gt;&lt;/span&gt;F&lt;/b&gt;" style="text;html=1;align=center;verticalAlign=middle;resizable=0;points=[];autosize=1;strokeColor=none;fillColor=none;" vertex="1" parent="WIyWlLk6GJQsqaUBKTNV-1">
          <mxGeometry x="445" y="118" width="30" height="30" as="geometry" />
        </mxCell>
        <mxCell id="dbHFJKTM1H2bbqzhpIs9-17" style="edgeStyle=orthogonalEdgeStyle;rounded=0;orthogonalLoop=1;jettySize=auto;html=1;exitX=0.5;exitY=1;exitDx=0;exitDy=0;" edge="1" parent="WIyWlLk6GJQsqaUBKTNV-1" source="dbHFJKTM1H2bbqzhpIs9-11" target="dbHFJKTM1H2bbqzhpIs9-18">
          <mxGeometry relative="1" as="geometry">
            <mxPoint x="400" y="360" as="targetPoint" />
          </mxGeometry>
        </mxCell>
        <mxCell id="dbHFJKTM1H2bbqzhpIs9-26" style="edgeStyle=orthogonalEdgeStyle;rounded=0;orthogonalLoop=1;jettySize=auto;html=1;exitX=0;exitY=0.5;exitDx=0;exitDy=0;entryX=1;entryY=0.5;entryDx=0;entryDy=0;" edge="1" parent="WIyWlLk6GJQsqaUBKTNV-1" source="dbHFJKTM1H2bbqzhpIs9-11" target="dbHFJKTM1H2bbqzhpIs9-16">
          <mxGeometry relative="1" as="geometry" />
        </mxCell>
        <mxCell id="dbHFJKTM1H2bbqzhpIs9-11" value="&lt;span id=&quot;selected_text&quot;&gt;&lt;/span&gt;(2) X &amp;gt; 0" style="rhombus;whiteSpace=wrap;html=1;" vertex="1" parent="WIyWlLk6GJQsqaUBKTNV-1">
          <mxGeometry x="360" y="240" width="80" height="50" as="geometry" />
        </mxCell>
        <mxCell id="dbHFJKTM1H2bbqzhpIs9-14" value="&lt;b&gt;&lt;span id=&quot;selected_text&quot;&gt;&lt;/span&gt;T&lt;/b&gt;" style="text;html=1;align=center;verticalAlign=middle;resizable=0;points=[];autosize=1;strokeColor=none;fillColor=none;" vertex="1" parent="WIyWlLk6GJQsqaUBKTNV-1">
          <mxGeometry x="325" y="240" width="30" height="30" as="geometry" />
        </mxCell>
        <mxCell id="dbHFJKTM1H2bbqzhpIs9-15" value="&lt;b&gt;T&lt;/b&gt;" style="text;html=1;align=center;verticalAlign=middle;resizable=0;points=[];autosize=1;strokeColor=none;fillColor=none;" vertex="1" parent="WIyWlLk6GJQsqaUBKTNV-1">
          <mxGeometry x="399" y="170" width="30" height="30" as="geometry" />
        </mxCell>
        <mxCell id="dbHFJKTM1H2bbqzhpIs9-20" style="edgeStyle=orthogonalEdgeStyle;rounded=0;orthogonalLoop=1;jettySize=auto;html=1;exitX=0;exitY=0.5;exitDx=0;exitDy=0;entryX=0;entryY=0.5;entryDx=0;entryDy=0;" edge="1" parent="WIyWlLk6GJQsqaUBKTNV-1" source="dbHFJKTM1H2bbqzhpIs9-16" target="dbHFJKTM1H2bbqzhpIs9-4">
          <mxGeometry relative="1" as="geometry">
            <Array as="points">
              <mxPoint x="160" y="265" />
              <mxPoint x="160" y="145" />
            </Array>
          </mxGeometry>
        </mxCell>
        <mxCell id="dbHFJKTM1H2bbqzhpIs9-22" style="edgeStyle=orthogonalEdgeStyle;rounded=0;orthogonalLoop=1;jettySize=auto;html=1;exitX=0;exitY=0.5;exitDx=0;exitDy=0;entryX=0;entryY=0.5;entryDx=0;entryDy=0;" edge="1" parent="WIyWlLk6GJQsqaUBKTNV-1" source="dbHFJKTM1H2bbqzhpIs9-18" target="dbHFJKTM1H2bbqzhpIs9-4">
          <mxGeometry relative="1" as="geometry">
            <Array as="points">
              <mxPoint x="160" y="360" />
              <mxPoint x="160" y="145" />
            </Array>
          </mxGeometry>
        </mxCell>
        <mxCell id="dbHFJKTM1H2bbqzhpIs9-18" value="&lt;span id=&quot;selected_text&quot;&gt;&lt;/span&gt;(4) input(X)" style="rounded=1;whiteSpace=wrap;html=1;" vertex="1" parent="WIyWlLk6GJQsqaUBKTNV-1">
          <mxGeometry x="340" y="340" width="120" height="40" as="geometry" />
        </mxCell>
        <mxCell id="dbHFJKTM1H2bbqzhpIs9-19" value="&lt;b&gt;&lt;span id=&quot;selected_text&quot;&gt;&lt;/span&gt;F&lt;/b&gt;" style="text;html=1;align=center;verticalAlign=middle;resizable=0;points=[];autosize=1;strokeColor=none;fillColor=none;" vertex="1" parent="WIyWlLk6GJQsqaUBKTNV-1">
          <mxGeometry x="399" y="290" width="30" height="30" as="geometry" />
        </mxCell>
        <mxCell id="dbHFJKTM1H2bbqzhpIs9-16" value="&lt;span id=&quot;selected_text&quot;&gt;&lt;/span&gt;(3) Y = Y - X" style="rounded=1;whiteSpace=wrap;html=1;" vertex="1" parent="WIyWlLk6GJQsqaUBKTNV-1">
          <mxGeometry x="200" y="250" width="100" height="30" as="geometry" />
        </mxCell>
        <mxCell id="dbHFJKTM1H2bbqzhpIs9-28" value="&lt;b&gt;&lt;span id=&quot;selected_text&quot;&gt;&lt;/span&gt;END&lt;/b&gt;" style="text;html=1;align=center;verticalAlign=middle;resizable=0;points=[];autosize=1;strokeColor=none;fillColor=none;" vertex="1" parent="WIyWlLk6GJQsqaUBKTNV-1">
          <mxGeometry x="375" y="528" width="50" height="30" as="geometry" />
        </mxCell>
      </root>
    </mxGraphModel>
  </diagram>
</mxfile>
